<svg width="100" height="100" viewBox="0 0 100 100" fill="none" xmlns="http://www.w3.org/2000/svg">
<g id="ri:image-add-line">
<path id="Vector" d="M87.5 62.5V75H100V83.3333H87.5V95.8333H79.1667V83.3333H66.6667V75H79.1667V62.5H87.5ZM87.5333 12.5C89.8167 12.5 91.6667 14.3542 91.6667 16.6375V54.1667H83.3333V20.8333H16.6667V79.1625L58.3333 37.5L70.8333 50V61.7875L58.3333 49.2875L28.4458 79.1667H58.3333V87.5H12.4667C11.3701 87.4989 10.3187 87.0625 9.54372 86.2867C8.76869 85.5109 8.33334 84.4591 8.33334 83.3625V16.6375C8.34097 15.5432 8.77876 14.4959 9.55215 13.7217C10.3255 12.9476 11.3724 12.5087 12.4667 12.5H87.5333ZM33.3333 29.1667C35.5435 29.1667 37.6631 30.0446 39.2259 31.6074C40.7887 33.1702 41.6667 35.2899 41.6667 37.5C41.6667 39.7101 40.7887 41.8298 39.2259 43.3926C37.6631 44.9554 35.5435 45.8333 33.3333 45.8333C31.1232 45.8333 29.0036 44.9554 27.4408 43.3926C25.878 41.8298 25 39.7101 25 37.5C25 35.2899 25.878 33.1702 27.4408 31.6074C29.0036 30.0446 31.1232 29.1667 33.3333 29.1667Z" fill="black"/>
</g>
</svg>
