<svg xmlns="http://www.w3.org/2000/svg" xmlns:xlink="http://www.w3.org/1999/xlink" width="500" zoomAndPan="magnify" viewBox="0 0 375 374.999991" height="500" preserveAspectRatio="xMidYMid meet" version="1.0"><defs><g/><clipPath id="3b0c4a71f8"><path d="M 66.394531 156.007812 L 107 156.007812 L 107 219 L 66.394531 219 Z M 66.394531 156.007812 " clip-rule="nonzero"/></clipPath><clipPath id="d1309b143f"><path d="M 66.394531 156.007812 L 107 156.007812 L 107 204 L 66.394531 204 Z M 66.394531 156.007812 " clip-rule="nonzero"/></clipPath><clipPath id="75d72c5c24"><path d="M 121 156.007812 L 133.894531 156.007812 L 133.894531 169 L 121 169 Z M 121 156.007812 " clip-rule="nonzero"/></clipPath><clipPath id="d49d1340e0"><path d="M 92 156.007812 L 133.894531 156.007812 L 133.894531 219 L 92 219 Z M 92 156.007812 " clip-rule="nonzero"/></clipPath><clipPath id="474f1bc04e"><path d="M 92 156.007812 L 133.894531 156.007812 L 133.894531 204 L 92 204 Z M 92 156.007812 " clip-rule="nonzero"/></clipPath></defs><rect x="-37.5" width="450" fill="#ffffff" y="-37.499999" height="449.999989" fill-opacity="1"/><rect x="-37.5" width="450" fill="#ffffff" y="-37.499999" height="449.999989" fill-opacity="1"/><g clip-path="url(#3b0c4a71f8)"><path fill="#72ffff" d="M 82.449219 159.164062 L 104.144531 180.960938 C 104.582031 181.398438 104.972656 181.875 105.316406 182.390625 C 105.660156 182.90625 105.949219 183.453125 106.183594 184.023438 C 106.421875 184.597656 106.601562 185.1875 106.71875 185.796875 C 106.839844 186.40625 106.902344 187.019531 106.902344 187.640625 C 106.902344 188.261719 106.839844 188.875 106.71875 189.484375 C 106.601562 190.09375 106.421875 190.683594 106.183594 191.257812 C 105.949219 191.828125 105.660156 192.375 105.316406 192.890625 C 104.972656 193.40625 104.582031 193.882812 104.144531 194.320312 L 82.449219 216.117188 C 76.523438 222.070312 66.390625 217.851562 66.394531 209.429688 L 66.394531 165.839844 C 66.390625 157.429688 76.523438 153.210938 82.449219 159.164062 Z M 82.449219 159.164062 " fill-opacity="1" fill-rule="nonzero"/></g><g clip-path="url(#d1309b143f)"><path fill="#00d7ff" d="M 82.449219 159.164062 C 76.558594 153.246094 66.539062 157.382812 66.398438 165.699219 C 66.398438 165.699219 100.539062 198.148438 95.109375 203.4375 L 104.164062 194.339844 C 104.601562 193.902344 104.992188 193.425781 105.335938 192.910156 C 105.679688 192.394531 105.96875 191.847656 106.203125 191.277344 C 106.441406 190.703125 106.617188 190.113281 106.738281 189.503906 C 106.859375 188.894531 106.921875 188.28125 106.921875 187.660156 C 106.921875 187.039062 106.859375 186.425781 106.738281 185.816406 C 106.617188 185.207031 106.441406 184.617188 106.203125 184.042969 C 105.96875 183.46875 105.679688 182.925781 105.335938 182.410156 C 104.992188 181.894531 104.601562 181.417969 104.164062 180.976562 Z M 82.449219 159.164062 " fill-opacity="1" fill-rule="nonzero"/></g><g clip-path="url(#75d72c5c24)"><path fill="#590696" d="M 133.894531 162.253906 C 133.894531 162.660156 133.855469 163.0625 133.777344 163.457031 C 133.699219 163.855469 133.582031 164.242188 133.425781 164.617188 C 133.273438 164.992188 133.082031 165.347656 132.859375 165.683594 C 132.632812 166.023438 132.378906 166.335938 132.09375 166.621094 C 131.808594 166.90625 131.496094 167.164062 131.164062 167.390625 C 130.828125 167.613281 130.472656 167.804688 130.097656 167.960938 C 129.726562 168.113281 129.34375 168.230469 128.945312 168.3125 C 128.550781 168.390625 128.152344 168.429688 127.746094 168.429688 C 127.34375 168.429688 126.945312 168.390625 126.546875 168.3125 C 126.152344 168.230469 125.765625 168.113281 125.394531 167.960938 C 125.023438 167.804688 124.667969 167.613281 124.332031 167.390625 C 123.996094 167.164062 123.6875 166.90625 123.398438 166.621094 C 123.113281 166.335938 122.859375 166.023438 122.636719 165.683594 C 122.410156 165.347656 122.222656 164.992188 122.066406 164.617188 C 121.914062 164.242188 121.796875 163.855469 121.71875 163.457031 C 121.640625 163.0625 121.601562 162.660156 121.601562 162.253906 C 121.601562 161.847656 121.640625 161.445312 121.71875 161.050781 C 121.796875 160.652344 121.914062 160.265625 122.066406 159.890625 C 122.222656 159.515625 122.410156 159.160156 122.636719 158.824219 C 122.859375 158.484375 123.113281 158.175781 123.398438 157.886719 C 123.6875 157.601562 123.996094 157.34375 124.332031 157.121094 C 124.667969 156.894531 125.023438 156.703125 125.394531 156.550781 C 125.765625 156.394531 126.152344 156.277344 126.546875 156.199219 C 126.945312 156.117188 127.34375 156.078125 127.746094 156.078125 C 128.152344 156.078125 128.550781 156.117188 128.945312 156.199219 C 129.34375 156.277344 129.726562 156.394531 130.097656 156.550781 C 130.472656 156.703125 130.828125 156.894531 131.164062 157.121094 C 131.496094 157.34375 131.808594 157.601562 132.09375 157.886719 C 132.378906 158.175781 132.632812 158.484375 132.859375 158.824219 C 133.082031 159.160156 133.273438 159.515625 133.425781 159.890625 C 133.582031 160.265625 133.699219 160.652344 133.777344 161.050781 C 133.855469 161.445312 133.894531 161.847656 133.894531 162.253906 Z M 133.894531 162.253906 " fill-opacity="1" fill-rule="nonzero"/><path fill="#590696" d="M 133.894531 162.253906 C 133.894531 162.660156 133.855469 163.0625 133.777344 163.457031 C 133.699219 163.855469 133.582031 164.242188 133.425781 164.617188 C 133.273438 164.992188 133.082031 165.347656 132.859375 165.683594 C 132.632812 166.023438 132.378906 166.335938 132.09375 166.621094 C 131.808594 166.90625 131.496094 167.164062 131.164062 167.390625 C 130.828125 167.613281 130.472656 167.804688 130.097656 167.960938 C 129.726562 168.113281 129.34375 168.230469 128.945312 168.3125 C 128.550781 168.390625 128.152344 168.429688 127.746094 168.429688 C 127.34375 168.429688 126.945312 168.390625 126.546875 168.3125 C 126.152344 168.230469 125.765625 168.113281 125.394531 167.960938 C 125.023438 167.804688 124.667969 167.613281 124.332031 167.390625 C 123.996094 167.164062 123.6875 166.90625 123.398438 166.621094 C 123.113281 166.335938 122.859375 166.023438 122.636719 165.683594 C 122.410156 165.347656 122.222656 164.992188 122.066406 164.617188 C 121.914062 164.242188 121.796875 163.855469 121.71875 163.457031 C 121.640625 163.0625 121.601562 162.660156 121.601562 162.253906 C 121.601562 161.847656 121.640625 161.445312 121.71875 161.050781 C 121.796875 160.652344 121.914062 160.265625 122.066406 159.890625 C 122.222656 159.515625 122.410156 159.160156 122.636719 158.824219 C 122.859375 158.484375 123.113281 158.175781 123.398438 157.886719 C 123.6875 157.601562 123.996094 157.34375 124.332031 157.121094 C 124.667969 156.894531 125.023438 156.703125 125.394531 156.550781 C 125.765625 156.394531 126.152344 156.277344 126.546875 156.199219 C 126.945312 156.117188 127.34375 156.078125 127.746094 156.078125 C 128.152344 156.078125 128.550781 156.117188 128.945312 156.199219 C 129.34375 156.277344 129.726562 156.394531 130.097656 156.550781 C 130.472656 156.703125 130.828125 156.894531 131.164062 157.121094 C 131.496094 157.34375 131.808594 157.601562 132.09375 157.886719 C 132.378906 158.175781 132.632812 158.484375 132.859375 158.824219 C 133.082031 159.160156 133.273438 159.515625 133.425781 159.890625 C 133.582031 160.265625 133.699219 160.652344 133.777344 161.050781 C 133.855469 161.445312 133.894531 161.847656 133.894531 162.253906 Z M 133.894531 162.253906 " fill-opacity="1" fill-rule="nonzero"/></g><g clip-path="url(#d49d1340e0)"><path fill="#0096ff" d="M 131.136719 181.011719 L 109.441406 159.21875 C 103.617188 153.363281 88.089844 160.152344 93.402344 165.488281 L 109.007812 181.167969 C 109.441406 181.605469 109.832031 182.082031 110.175781 182.597656 C 110.519531 183.113281 110.808594 183.65625 111.046875 184.230469 C 111.28125 184.804688 111.460938 185.394531 111.582031 186.003906 C 111.703125 186.613281 111.761719 187.226562 111.761719 187.847656 C 111.761719 188.464844 111.703125 189.082031 111.582031 189.6875 C 111.460938 190.296875 111.28125 190.886719 111.046875 191.460938 C 110.808594 192.035156 110.519531 192.578125 110.175781 193.09375 C 109.832031 193.609375 109.441406 194.085938 109.007812 194.523438 L 93.414062 210.195312 C 88.660156 214.964844 103.671875 222 109.441406 216.207031 L 131.136719 194.414062 C 131.574219 193.976562 131.96875 193.496094 132.3125 192.980469 C 132.660156 192.460938 132.953125 191.917969 133.1875 191.339844 C 133.425781 190.765625 133.605469 190.175781 133.730469 189.5625 C 133.851562 188.953125 133.910156 188.335938 133.910156 187.714844 C 133.910156 187.089844 133.851562 186.472656 133.730469 185.863281 C 133.605469 185.253906 133.425781 184.660156 133.1875 184.085938 C 132.953125 183.507812 132.660156 182.964844 132.3125 182.445312 C 131.96875 181.929688 131.574219 181.453125 131.136719 181.011719 Z M 131.136719 181.011719 " fill-opacity="1" fill-rule="nonzero"/></g><g clip-path="url(#474f1bc04e)"><path fill="#5800ff" d="M 131.136719 181.011719 L 109.441406 159.21875 C 103.617188 153.363281 88.089844 160.152344 93.402344 165.488281 L 109.007812 181.167969 C 109.757812 181.921875 110.367188 182.78125 110.828125 183.746094 C 111.289062 184.710938 111.578125 185.722656 111.695312 186.785156 C 117.074219 193.125 121.542969 199.28125 122.472656 203.117188 L 131.152344 194.398438 C 131.589844 193.960938 131.980469 193.480469 132.324219 192.964844 C 132.667969 192.449219 132.957031 191.902344 133.195312 191.328125 C 133.433594 190.753906 133.609375 190.160156 133.730469 189.550781 C 133.851562 188.941406 133.910156 188.324219 133.910156 187.703125 C 133.910156 187.082031 133.847656 186.464844 133.726562 185.855469 C 133.605469 185.246094 133.425781 184.652344 133.1875 184.078125 C 132.949219 183.503906 132.65625 182.960938 132.3125 182.445312 C 131.96875 181.929688 131.574219 181.449219 131.136719 181.011719 Z M 131.136719 181.011719 " fill-opacity="1" fill-rule="nonzero"/></g><g fill="#231f20" fill-opacity="1"><g transform="translate(147.267271, 203.386029)"><g><path d="M 15.097656 0 L 15.097656 -24.683594 L 23.878906 -24.683594 L 23.878906 -29.496094 L 0.933594 -29.496094 L 0.933594 -24.683594 L 9.71875 -24.683594 L 9.71875 0 Z M 15.097656 0 "/></g></g></g><g fill="#231f20" fill-opacity="1"><g transform="translate(172.078311, 203.386029)"><g><path d="M 8.914062 0 L 8.914062 -20.886719 L 17.65625 -8.785156 L 19.109375 -8.785156 L 27.9375 -20.84375 L 27.9375 0 L 33.335938 0 L 33.335938 -29.496094 L 28.628906 -29.496094 L 18.394531 -15.746094 L 8.21875 -29.496094 L 3.515625 -29.496094 L 3.515625 0 Z M 8.914062 0 "/></g></g></g><g fill="#231f20" fill-opacity="1"><g transform="translate(208.904487, 203.386029)"><g><path d="M 29.867188 0 L 17.589844 -29.519531 L 12.472656 -29.519531 L 0.195312 0 L 5.898438 0 L 8.242188 -5.703125 L 21.820312 -5.703125 L 24.164062 0 Z M 14.835938 -21.839844 L 15.007812 -22.558594 L 15.074219 -22.558594 L 15.203125 -21.839844 L 19.976562 -10.214844 L 10.085938 -10.214844 Z M 14.835938 -21.839844 "/></g></g></g><g fill="#231f20" fill-opacity="1"><g transform="translate(238.985703, 203.386029)"><g><path d="M 8.914062 0 L 8.914062 -10.453125 L 13.96875 -10.453125 C 14.359375 -10.453125 14.726562 -10.453125 15.117188 -10.476562 L 20.953125 0 L 27.15625 0 L 20.476562 -11.300781 C 24.097656 -12.558594 26.484375 -15.726562 26.484375 -19.890625 C 26.484375 -25.636719 22.210938 -29.496094 16.246094 -29.496094 L 3.515625 -29.496094 L 3.515625 0 Z M 8.914062 -24.683594 L 16.027344 -24.683594 C 18.890625 -24.683594 21.082031 -22.578125 21.082031 -19.890625 C 21.082031 -17.003906 18.914062 -15.03125 16.050781 -15.007812 L 8.914062 -15.007812 Z M 8.914062 -24.683594 "/></g></g></g><g fill="#231f20" fill-opacity="1"><g transform="translate(267.071627, 203.386029)"><g><path d="M 15.097656 0 L 15.097656 -24.683594 L 23.878906 -24.683594 L 23.878906 -29.496094 L 0.933594 -29.496094 L 0.933594 -24.683594 L 9.71875 -24.683594 L 9.71875 0 Z M 15.097656 0 "/></g></g></g></svg>