<svg xmlns="http://www.w3.org/2000/svg" xmlns:xlink="http://www.w3.org/1999/xlink" width="500" zoomAndPan="magnify" viewBox="0 0 375 374.999991" height="500" preserveAspectRatio="xMidYMid meet" version="1.0"><defs><g/><clipPath id="48a7111e7a"><path d="M 136.035156 102.972656 L 239 102.972656 L 239 200.167969 L 136.035156 200.167969 Z M 136.035156 102.972656 " clip-rule="nonzero"/></clipPath><clipPath id="67fbad4d69"><path d="M 148.035156 102.972656 L 226.964844 102.972656 C 233.59375 102.972656 238.964844 108.347656 238.964844 114.972656 L 238.964844 188.167969 C 238.964844 194.792969 233.59375 200.167969 226.964844 200.167969 L 148.035156 200.167969 C 141.40625 200.167969 136.035156 194.792969 136.035156 188.167969 L 136.035156 114.972656 C 136.035156 108.347656 141.40625 102.972656 148.035156 102.972656 Z M 148.035156 102.972656 " clip-rule="nonzero"/></clipPath><clipPath id="79043fb15a"><path d="M 169 130 L 210 130 L 210 171 L 169 171 Z M 169 130 " clip-rule="nonzero"/></clipPath><clipPath id="4d69b8ee56"><path d="M 148.417969 163.347656 L 200.773438 108.601562 L 269.066406 173.917969 L 216.710938 228.660156 Z M 148.417969 163.347656 " clip-rule="nonzero"/></clipPath><clipPath id="22a55ec178"><path d="M 148.417969 163.347656 L 200.773438 108.601562 L 269.066406 173.917969 L 216.710938 228.660156 Z M 148.417969 163.347656 " clip-rule="nonzero"/></clipPath><clipPath id="71f1171b7a"><path d="M 172 132 L 261 132 L 261 221 L 172 221 Z M 172 132 " clip-rule="nonzero"/></clipPath><clipPath id="f348ed7cfe"><path d="M 148.417969 163.347656 L 200.773438 108.601562 L 269.066406 173.917969 L 216.710938 228.660156 Z M 148.417969 163.347656 " clip-rule="nonzero"/></clipPath><clipPath id="84ac68cf33"><path d="M 148.417969 163.347656 L 200.773438 108.601562 L 269.066406 173.917969 L 216.710938 228.660156 Z M 148.417969 163.347656 " clip-rule="nonzero"/></clipPath><clipPath id="ca276988c3"><path d="M 148.414062 115.195312 L 157.59375 115.195312 L 157.59375 124.375 L 148.414062 124.375 Z M 148.414062 115.195312 " clip-rule="nonzero"/></clipPath><clipPath id="0bee9e134a"><path d="M 153.003906 115.195312 C 150.46875 115.195312 148.414062 117.25 148.414062 119.785156 C 148.414062 122.320312 150.46875 124.375 153.003906 124.375 C 155.539062 124.375 157.59375 122.320312 157.59375 119.785156 C 157.59375 117.25 155.539062 115.195312 153.003906 115.195312 Z M 153.003906 115.195312 " clip-rule="nonzero"/></clipPath></defs><g clip-path="url(#48a7111e7a)"><g clip-path="url(#67fbad4d69)"><path fill="#19c463" d="M 136.035156 102.972656 L 238.921875 102.972656 L 238.921875 200.167969 L 136.035156 200.167969 Z M 136.035156 102.972656 " fill-opacity="1" fill-rule="nonzero"/></g></g><g clip-path="url(#79043fb15a)"><g clip-path="url(#4d69b8ee56)"><g clip-path="url(#22a55ec178)"><path fill="#ffffff" d="M 208.074219 148.816406 C 207.859375 149.039062 207.628906 149.238281 207.371094 149.417969 C 207.117188 149.597656 206.851562 149.746094 206.566406 149.871094 C 206.28125 149.996094 205.988281 150.09375 205.6875 150.160156 C 205.382812 150.230469 205.078125 150.265625 204.765625 150.273438 C 204.457031 150.28125 204.148438 150.257812 203.84375 150.203125 C 203.539062 150.148438 203.242188 150.066406 202.949219 149.953125 C 202.660156 149.839844 202.386719 149.703125 202.125 149.535156 C 201.863281 149.367188 201.621094 149.179688 201.394531 148.964844 L 194.566406 142.433594 C 194.117188 142.003906 193.632812 141.625 193.109375 141.289062 C 192.585938 140.957031 192.035156 140.679688 191.457031 140.453125 C 190.878906 140.230469 190.285156 140.0625 189.671875 139.957031 C 189.0625 139.847656 188.445312 139.800781 187.824219 139.816406 C 187.207031 139.828125 186.59375 139.902344 185.988281 140.039062 C 185.382812 140.171875 184.792969 140.363281 184.226562 140.613281 C 183.660156 140.863281 183.121094 141.167969 182.613281 141.523438 C 182.105469 141.878906 181.636719 142.28125 181.207031 142.730469 C 180.777344 143.179688 180.398438 143.664062 180.066406 144.1875 C 179.730469 144.710938 179.453125 145.261719 179.230469 145.839844 C 179.003906 146.417969 178.839844 147.015625 178.730469 147.625 C 178.625 148.234375 178.578125 148.851562 178.589844 149.472656 C 178.605469 150.09375 178.679688 150.707031 178.8125 151.3125 C 178.949219 151.917969 179.140625 152.503906 179.390625 153.070312 C 179.640625 153.640625 179.941406 154.175781 180.300781 154.683594 C 180.65625 155.191406 181.058594 155.660156 181.507812 156.089844 L 188.335938 162.621094 C 188.558594 162.835938 188.757812 163.070312 188.9375 163.324219 C 189.117188 163.578125 189.265625 163.847656 189.390625 164.128906 C 189.515625 164.414062 189.613281 164.707031 189.679688 165.011719 C 189.75 165.3125 189.785156 165.621094 189.792969 165.929688 C 189.800781 166.238281 189.777344 166.546875 189.722656 166.851562 C 189.667969 167.160156 189.585938 167.457031 189.472656 167.746094 C 189.359375 168.035156 189.222656 168.308594 189.054688 168.570312 C 188.886719 168.832031 188.699219 169.078125 188.484375 169.300781 C 188.269531 169.523438 188.035156 169.726562 187.78125 169.902344 C 187.527344 170.082031 187.257812 170.234375 186.972656 170.359375 C 186.691406 170.484375 186.398438 170.578125 186.09375 170.648438 C 185.789062 170.714844 185.484375 170.75 185.175781 170.757812 C 184.863281 170.765625 184.554688 170.742188 184.25 170.6875 C 183.945312 170.632812 183.648438 170.550781 183.359375 170.4375 C 183.070312 170.328125 182.792969 170.1875 182.53125 170.019531 C 182.269531 169.855469 182.027344 169.664062 181.804688 169.449219 L 174.976562 162.917969 C 174.527344 162.492188 174.101562 162.042969 173.699219 161.574219 C 173.296875 161.101562 172.917969 160.613281 172.5625 160.109375 C 172.207031 159.601562 171.875 159.078125 171.574219 158.539062 C 171.269531 158 170.992188 157.445312 170.742188 156.878906 C 170.492188 156.3125 170.273438 155.738281 170.078125 155.148438 C 169.886719 154.5625 169.722656 153.964844 169.589844 153.359375 C 169.453125 152.757812 169.351562 152.148438 169.277344 151.53125 C 169.203125 150.917969 169.15625 150.300781 169.144531 149.683594 C 169.128906 149.0625 169.144531 148.445312 169.195312 147.828125 C 169.242188 147.210938 169.316406 146.597656 169.425781 145.988281 C 169.53125 145.378906 169.667969 144.777344 169.835938 144.179688 C 170 143.585938 170.195312 142.996094 170.421875 142.421875 C 170.644531 141.84375 170.898438 141.277344 171.175781 140.726562 C 171.457031 140.175781 171.761719 139.636719 172.09375 139.117188 C 172.425781 138.59375 172.78125 138.089844 173.164062 137.601562 C 173.546875 137.113281 173.953125 136.648438 174.378906 136.199219 C 174.808594 135.753906 175.257812 135.328125 175.726562 134.925781 C 176.195312 134.519531 176.683594 134.140625 177.191406 133.785156 C 177.695312 133.429688 178.21875 133.101562 178.757812 132.796875 C 179.296875 132.496094 179.851562 132.21875 180.417969 131.96875 C 180.984375 131.71875 181.5625 131.496094 182.148438 131.304688 C 182.738281 131.113281 183.332031 130.949219 183.9375 130.8125 C 184.542969 130.679688 185.152344 130.574219 185.765625 130.5 C 186.378906 130.425781 186.996094 130.382812 187.617188 130.367188 C 188.234375 130.355469 188.851562 130.371094 189.46875 130.417969 C 190.085938 130.464844 190.699219 130.542969 191.308594 130.648438 C 191.917969 130.757812 192.523438 130.894531 193.117188 131.058594 C 193.714844 131.226562 194.300781 131.421875 194.878906 131.644531 C 195.453125 131.871094 196.019531 132.121094 196.570312 132.402344 C 197.125 132.679688 197.660156 132.988281 198.183594 133.320312 C 198.703125 133.652344 199.210938 134.007812 199.695312 134.390625 C 200.183594 134.773438 200.652344 135.175781 201.097656 135.605469 L 207.925781 142.136719 C 208.152344 142.351562 208.351562 142.582031 208.53125 142.839844 C 208.707031 143.09375 208.859375 143.359375 208.984375 143.644531 C 209.109375 143.929688 209.207031 144.222656 209.273438 144.523438 C 209.339844 144.828125 209.378906 145.132812 209.382812 145.445312 C 209.390625 145.753906 209.367188 146.0625 209.3125 146.367188 C 209.261719 146.671875 209.175781 146.96875 209.066406 147.257812 C 208.953125 147.550781 208.8125 147.824219 208.648438 148.085938 C 208.480469 148.347656 208.289062 148.589844 208.074219 148.816406 Z M 208.074219 148.816406 " fill-opacity="1" fill-rule="nonzero"/></g></g></g><g clip-path="url(#71f1171b7a)"><g clip-path="url(#f348ed7cfe)"><g clip-path="url(#84ac68cf33)"><path fill="#ffffff" d="M 220.835938 134.425781 C 220.378906 134.054688 219.890625 133.726562 219.375 133.445312 C 218.855469 133.164062 218.316406 132.933594 217.753906 132.753906 C 217.195312 132.574219 216.621094 132.445312 216.035156 132.375 C 215.453125 132.300781 214.863281 132.28125 214.277344 132.316406 C 213.6875 132.351562 213.109375 132.441406 212.535156 132.585938 C 211.964844 132.730469 211.410156 132.925781 210.875 133.171875 C 210.339844 133.417969 209.832031 133.710938 209.351562 134.054688 C 208.875 134.394531 208.429688 134.777344 208.019531 135.203125 L 174.882812 169.851562 C 174.476562 170.277344 174.113281 170.738281 173.792969 171.234375 C 173.472656 171.730469 173.203125 172.25 172.980469 172.796875 C 172.757812 173.339844 172.585938 173.902344 172.46875 174.480469 C 172.351562 175.058594 172.285156 175.640625 172.277344 176.230469 C 172.269531 176.820312 172.3125 177.40625 172.414062 177.984375 C 172.511719 178.566406 172.664062 179.132812 172.871094 179.6875 C 173.074219 180.238281 173.328125 180.765625 173.632812 181.273438 C 173.9375 181.777344 174.285156 182.25 174.675781 182.691406 L 202.65625 213.902344 C 203.089844 214.382812 203.546875 214.84375 204.027344 215.28125 C 204.507812 215.71875 205.011719 216.128906 205.535156 216.511719 C 206.054688 216.898438 206.597656 217.253906 207.15625 217.582031 C 207.71875 217.910156 208.292969 218.210938 208.882812 218.480469 C 209.472656 218.75 210.078125 218.988281 210.691406 219.195312 C 211.308594 219.402344 211.933594 219.578125 212.566406 219.71875 C 213.199219 219.863281 213.835938 219.972656 214.480469 220.050781 C 215.125 220.128906 215.773438 220.171875 216.421875 220.183594 C 217.070312 220.191406 217.71875 220.167969 218.367188 220.113281 C 219.011719 220.058594 219.65625 219.96875 220.292969 219.84375 C 220.929688 219.722656 221.558594 219.566406 222.179688 219.378906 C 222.804688 219.191406 223.414062 218.972656 224.011719 218.722656 C 224.613281 218.472656 225.195312 218.191406 225.765625 217.882812 C 226.335938 217.570312 226.890625 217.234375 227.425781 216.867188 C 227.960938 216.5 228.472656 216.105469 228.96875 215.683594 C 229.464844 215.261719 229.933594 214.816406 230.382812 214.347656 L 254.945312 188.667969 C 255.394531 188.199219 255.820312 187.707031 256.214844 187.195312 C 256.613281 186.679688 256.984375 186.148438 257.328125 185.597656 C 257.671875 185.046875 257.984375 184.480469 258.269531 183.894531 C 258.554688 183.3125 258.808594 182.714844 259.03125 182.105469 C 259.257812 181.496094 259.449219 180.878906 259.605469 180.25 C 259.765625 179.617188 259.894531 178.984375 259.988281 178.339844 C 260.082031 177.699219 260.140625 177.050781 260.167969 176.402344 C 260.195312 175.753906 260.191406 175.105469 260.152344 174.457031 C 260.113281 173.8125 260.039062 173.167969 259.933594 172.527344 C 259.828125 171.886719 259.6875 171.253906 259.519531 170.625 C 259.347656 170 259.144531 169.382812 258.910156 168.777344 C 258.675781 168.171875 258.410156 167.582031 258.113281 167.003906 C 257.820312 166.425781 257.496094 165.863281 257.140625 165.320312 C 256.789062 164.773438 256.40625 164.25 256 163.746094 C 255.59375 163.238281 255.160156 162.753906 254.703125 162.292969 C 254.246094 161.835938 253.765625 161.398438 253.261719 160.988281 Z M 220.835938 134.425781 " fill-opacity="1" fill-rule="nonzero"/></g></g></g><g clip-path="url(#ca276988c3)"><g clip-path="url(#0bee9e134a)"><path fill="#ffffff" d="M 148.414062 115.195312 L 157.59375 115.195312 L 157.59375 124.375 L 148.414062 124.375 Z M 148.414062 115.195312 " fill-opacity="1" fill-rule="nonzero"/></g></g><g fill="#19c463" fill-opacity="1"><g transform="translate(127.259618, 242.12559)"><g><path d="M 9.46875 -20.9375 L 1.1875 -20.9375 C 1.1875 -22.8125 2.066406 -23.75 3.828125 -23.75 L 20.890625 -23.75 C 20.890625 -21.875 20.007812 -20.9375 18.25 -20.9375 L 12.65625 -20.9375 L 12.65625 -2.34375 C 12.65625 -1.476562 12.382812 -0.816406 11.84375 -0.359375 C 11.300781 0.0859375 10.507812 0.3125 9.46875 0.3125 Z M 9.46875 -20.9375 "/></g></g></g><g fill="#19c463" fill-opacity="1"><g transform="translate(150.117883, 242.12559)"><g><path d="M 2.375 -21.40625 C 2.375 -22.238281 2.65625 -22.882812 3.21875 -23.34375 C 3.789062 -23.8125 4.570312 -24.046875 5.5625 -24.046875 L 13.765625 -4.34375 L 13.125 -2.75 L 13.359375 -2.640625 L 22.046875 -24.046875 C 23.046875 -24.046875 23.832031 -23.804688 24.40625 -23.328125 C 24.976562 -22.859375 25.265625 -22.207031 25.265625 -21.375 L 25.265625 0.3125 C 23.160156 0.3125 22.109375 -0.5625 22.109375 -2.3125 L 22.109375 -16.59375 L 23 -18.921875 L 22.734375 -19 L 15.15625 -0.609375 C 15.050781 -0.335938 14.875 -0.117188 14.625 0.046875 C 14.375 0.222656 14.113281 0.3125 13.84375 0.3125 C 13.550781 0.3125 13.28125 0.226562 13.03125 0.0625 C 12.78125 -0.09375 12.597656 -0.316406 12.484375 -0.609375 L 4.921875 -19.03125 L 4.640625 -18.921875 L 5.53125 -16.625 L 5.53125 -2.3125 C 5.53125 -1.445312 5.265625 -0.789062 4.734375 -0.34375 C 4.203125 0.09375 3.414062 0.3125 2.375 0.3125 Z M 2.375 -21.40625 "/></g></g></g><g fill="#19c463" fill-opacity="1"><g transform="translate(178.538044, 242.12559)"><g><path d="M 3.703125 0.3125 C 3.023438 0.175781 2.492188 -0.109375 2.109375 -0.546875 C 1.722656 -0.992188 1.53125 -1.535156 1.53125 -2.171875 C 1.53125 -2.597656 1.628906 -3.050781 1.828125 -3.53125 L 9.9375 -23.03125 C 10.207031 -23.707031 10.726562 -24.046875 11.5 -24.046875 C 12.21875 -24.046875 12.726562 -23.707031 13.03125 -23.03125 L 21.140625 -3.53125 C 21.335938 -3.050781 21.4375 -2.597656 21.4375 -2.171875 C 21.4375 -1.554688 21.242188 -1.019531 20.859375 -0.5625 C 20.472656 -0.113281 19.941406 0.175781 19.265625 0.3125 L 16.34375 -6.78125 L 6.609375 -6.78125 Z M 15.359375 -9.53125 L 10.984375 -20.625 L 10.71875 -20.515625 L 11.328125 -18.96875 L 7.59375 -9.53125 Z M 15.359375 -9.53125 "/></g></g></g><g fill="#19c463" fill-opacity="1"><g transform="translate(202.278073, 242.12559)"><g><path d="M 2.375 -22.25 C 2.375 -22.675781 2.523438 -23.03125 2.828125 -23.3125 C 3.140625 -23.601562 3.53125 -23.75 4 -23.75 L 13.359375 -23.75 C 15.554688 -23.75 17.304688 -23.109375 18.609375 -21.828125 C 19.910156 -20.546875 20.5625 -18.84375 20.5625 -16.71875 C 20.5625 -14.050781 19.394531 -12.164062 17.0625 -11.0625 L 17.0625 -10.953125 C 18.082031 -10.523438 18.863281 -9.875 19.40625 -9 C 19.945312 -8.132812 20.21875 -7.078125 20.21875 -5.828125 L 20.21875 -2.34375 C 20.21875 -1.476562 19.945312 -0.816406 19.40625 -0.359375 C 18.863281 0.0859375 18.070312 0.3125 17.03125 0.3125 L 17.03125 -5.625 C 17.03125 -6.957031 16.726562 -7.96875 16.125 -8.65625 C 15.53125 -9.351562 14.644531 -9.703125 13.46875 -9.703125 L 5.53125 -9.703125 L 5.53125 -2.34375 C 5.53125 -1.476562 5.265625 -0.816406 4.734375 -0.359375 C 4.203125 0.0859375 3.414062 0.3125 2.375 0.3125 Z M 13.265625 -12.453125 C 14.503906 -12.453125 15.488281 -12.832031 16.21875 -13.59375 C 16.957031 -14.363281 17.328125 -15.414062 17.328125 -16.75 C 17.328125 -18.113281 16.976562 -19.15625 16.28125 -19.875 C 15.582031 -20.601562 14.578125 -20.96875 13.265625 -20.96875 L 5.53125 -20.96875 L 5.53125 -12.453125 Z M 13.265625 -12.453125 "/></g></g></g><g fill="#19c463" fill-opacity="1"><g transform="translate(225.645053, 242.12559)"><g><path d="M 9.46875 -20.9375 L 1.1875 -20.9375 C 1.1875 -22.8125 2.066406 -23.75 3.828125 -23.75 L 20.890625 -23.75 C 20.890625 -21.875 20.007812 -20.9375 18.25 -20.9375 L 12.65625 -20.9375 L 12.65625 -2.34375 C 12.65625 -1.476562 12.382812 -0.816406 11.84375 -0.359375 C 11.300781 0.0859375 10.507812 0.3125 9.46875 0.3125 Z M 9.46875 -20.9375 "/></g></g></g><g fill="#545454" fill-opacity="1"><g transform="translate(108.714675, 272.278589)"><g><path d="M 11.40625 -10.0625 L 11.40625 0 L 10.078125 0 L 10.078125 -7.5 L 6.734375 0 L 5.796875 0 L 2.4375 -7.515625 L 2.4375 0 L 1.125 0 L 1.125 -10.0625 L 2.546875 -10.0625 L 6.265625 -1.75 L 10 -10.0625 Z M 11.40625 -10.0625 "/></g></g></g><g fill="#545454" fill-opacity="1"><g transform="translate(122.806502, 272.278589)"><g><path d="M 8.1875 -7.96875 L 8.1875 0 L 6.859375 0 L 6.859375 -1.171875 C 6.609375 -0.765625 6.257812 -0.445312 5.8125 -0.21875 C 5.363281 0 4.867188 0.109375 4.328125 0.109375 C 3.703125 0.109375 3.140625 -0.015625 2.640625 -0.265625 C 2.148438 -0.523438 1.757812 -0.910156 1.46875 -1.421875 C 1.1875 -1.941406 1.046875 -2.566406 1.046875 -3.296875 L 1.046875 -7.96875 L 2.359375 -7.96875 L 2.359375 -3.484375 C 2.359375 -2.691406 2.554688 -2.082031 2.953125 -1.65625 C 3.347656 -1.238281 3.890625 -1.03125 4.578125 -1.03125 C 5.285156 -1.03125 5.84375 -1.25 6.25 -1.6875 C 6.65625 -2.125 6.859375 -2.757812 6.859375 -3.59375 L 6.859375 -7.96875 Z M 8.1875 -7.96875 "/></g></g></g><g fill="#545454" fill-opacity="1"><g transform="translate(133.684602, 272.278589)"><g><path d="M 0.625 -4.015625 C 0.625 -4.828125 0.785156 -5.539062 1.109375 -6.15625 C 1.441406 -6.769531 1.894531 -7.25 2.46875 -7.59375 C 3.050781 -7.9375 3.695312 -8.109375 4.40625 -8.109375 C 5.101562 -8.109375 5.707031 -7.957031 6.21875 -7.65625 C 6.738281 -7.351562 7.125 -6.972656 7.375 -6.515625 L 7.375 -7.96875 L 8.71875 -7.96875 L 8.71875 0 L 7.375 0 L 7.375 -1.484375 C 7.113281 -1.015625 6.722656 -0.628906 6.203125 -0.328125 C 5.679688 -0.0234375 5.078125 0.125 4.390625 0.125 C 3.679688 0.125 3.039062 -0.046875 2.46875 -0.390625 C 1.894531 -0.742188 1.441406 -1.234375 1.109375 -1.859375 C 0.785156 -2.492188 0.625 -3.210938 0.625 -4.015625 Z M 7.375 -4 C 7.375 -4.601562 7.25 -5.125 7 -5.5625 C 6.757812 -6.007812 6.429688 -6.351562 6.015625 -6.59375 C 5.609375 -6.832031 5.160156 -6.953125 4.671875 -6.953125 C 4.171875 -6.953125 3.71875 -6.832031 3.3125 -6.59375 C 2.90625 -6.363281 2.582031 -6.023438 2.34375 -5.578125 C 2.101562 -5.140625 1.984375 -4.617188 1.984375 -4.015625 C 1.984375 -3.398438 2.101562 -2.867188 2.34375 -2.421875 C 2.582031 -1.972656 2.90625 -1.628906 3.3125 -1.390625 C 3.71875 -1.148438 4.171875 -1.03125 4.671875 -1.03125 C 5.160156 -1.03125 5.609375 -1.148438 6.015625 -1.390625 C 6.429688 -1.628906 6.757812 -1.972656 7 -2.421875 C 7.25 -2.867188 7.375 -3.394531 7.375 -4 Z M 7.375 -4 "/></g></g></g><g fill="#545454" fill-opacity="1"><g transform="translate(145.086207, 272.278589)"><g/></g></g><g fill="#545454" fill-opacity="1"><g transform="translate(150.540236, 272.278589)"><g><path d="M 7.359375 -10.140625 L 7.359375 -9.0625 L 4.59375 -9.0625 L 4.59375 0 L 3.265625 0 L 3.265625 -9.0625 L 0.5 -9.0625 L 0.5 -10.140625 Z M 7.359375 -10.140625 "/></g></g></g><g fill="#545454" fill-opacity="1"><g transform="translate(159.978702, 272.278589)"><g><path d="M 8.390625 -4.296875 C 8.390625 -4.035156 8.375 -3.765625 8.34375 -3.484375 L 1.984375 -3.484375 C 2.023438 -2.703125 2.289062 -2.085938 2.78125 -1.640625 C 3.269531 -1.203125 3.863281 -0.984375 4.5625 -0.984375 C 5.132812 -0.984375 5.613281 -1.117188 6 -1.390625 C 6.382812 -1.660156 6.65625 -2.015625 6.8125 -2.453125 L 8.234375 -2.453125 C 8.015625 -1.691406 7.585938 -1.070312 6.953125 -0.59375 C 6.316406 -0.113281 5.519531 0.125 4.5625 0.125 C 3.8125 0.125 3.132812 -0.0390625 2.53125 -0.375 C 1.9375 -0.71875 1.46875 -1.203125 1.125 -1.828125 C 0.789062 -2.453125 0.625 -3.175781 0.625 -4 C 0.625 -4.820312 0.785156 -5.539062 1.109375 -6.15625 C 1.441406 -6.78125 1.90625 -7.257812 2.5 -7.59375 C 3.101562 -7.9375 3.789062 -8.109375 4.5625 -8.109375 C 5.320312 -8.109375 5.992188 -7.941406 6.578125 -7.609375 C 7.160156 -7.273438 7.609375 -6.816406 7.921875 -6.234375 C 8.234375 -5.660156 8.390625 -5.015625 8.390625 -4.296875 Z M 7.03125 -4.5625 C 7.03125 -5.070312 6.914062 -5.507812 6.6875 -5.875 C 6.46875 -6.238281 6.164062 -6.515625 5.78125 -6.703125 C 5.394531 -6.890625 4.972656 -6.984375 4.515625 -6.984375 C 3.835938 -6.984375 3.265625 -6.769531 2.796875 -6.34375 C 2.328125 -5.914062 2.0625 -5.320312 2 -4.5625 Z M 7.03125 -4.5625 "/></g></g></g><g fill="#545454" fill-opacity="1"><g transform="translate(170.565968, 272.278589)"><g><path d="M 0.625 -4 C 0.625 -4.820312 0.785156 -5.539062 1.109375 -6.15625 C 1.441406 -6.769531 1.898438 -7.25 2.484375 -7.59375 C 3.078125 -7.9375 3.753906 -8.109375 4.515625 -8.109375 C 5.492188 -8.109375 6.300781 -7.867188 6.9375 -7.390625 C 7.570312 -6.910156 7.988281 -6.25 8.1875 -5.40625 L 6.765625 -5.40625 C 6.628906 -5.894531 6.363281 -6.28125 5.96875 -6.5625 C 5.570312 -6.84375 5.085938 -6.984375 4.515625 -6.984375 C 3.753906 -6.984375 3.140625 -6.722656 2.671875 -6.203125 C 2.210938 -5.679688 1.984375 -4.945312 1.984375 -4 C 1.984375 -3.039062 2.210938 -2.296875 2.671875 -1.765625 C 3.140625 -1.242188 3.753906 -0.984375 4.515625 -0.984375 C 5.085938 -0.984375 5.566406 -1.117188 5.953125 -1.390625 C 6.347656 -1.660156 6.617188 -2.050781 6.765625 -2.5625 L 8.1875 -2.5625 C 7.976562 -1.75 7.550781 -1.097656 6.90625 -0.609375 C 6.269531 -0.117188 5.472656 0.125 4.515625 0.125 C 3.753906 0.125 3.078125 -0.0390625 2.484375 -0.375 C 1.898438 -0.71875 1.441406 -1.195312 1.109375 -1.8125 C 0.785156 -2.4375 0.625 -3.164062 0.625 -4 Z M 0.625 -4 "/></g></g></g><g fill="#545454" fill-opacity="1"><g transform="translate(180.964195, 272.278589)"><g><path d="M 5.078125 -8.109375 C 5.679688 -8.109375 6.222656 -7.976562 6.703125 -7.71875 C 7.191406 -7.46875 7.570312 -7.082031 7.84375 -6.5625 C 8.125 -6.050781 8.265625 -5.429688 8.265625 -4.703125 L 8.265625 0 L 6.953125 0 L 6.953125 -4.515625 C 6.953125 -5.304688 6.753906 -5.910156 6.359375 -6.328125 C 5.960938 -6.753906 5.421875 -6.96875 4.734375 -6.96875 C 4.035156 -6.96875 3.476562 -6.75 3.0625 -6.3125 C 2.644531 -5.875 2.4375 -5.238281 2.4375 -4.40625 L 2.4375 0 L 1.125 0 L 1.125 -10.765625 L 2.4375 -10.765625 L 2.4375 -6.84375 C 2.707031 -7.25 3.070312 -7.5625 3.53125 -7.78125 C 3.988281 -8 4.503906 -8.109375 5.078125 -8.109375 Z M 5.078125 -8.109375 "/></g></g></g><g fill="#545454" fill-opacity="1"><g transform="translate(191.842296, 272.278589)"><g><path d="M 2.484375 -1.828125 L 0.859375 2.078125 L -0.03125 2.078125 L 1.03125 -1.828125 Z M 2.484375 -1.828125 "/></g></g></g><g fill="#545454" fill-opacity="1"><g transform="translate(196.292944, 272.278589)"><g/></g></g><g fill="#545454" fill-opacity="1"><g transform="translate(201.746967, 272.278589)"><g><path d="M 11.40625 -10.0625 L 11.40625 0 L 10.078125 0 L 10.078125 -7.5 L 6.734375 0 L 5.796875 0 L 2.4375 -7.515625 L 2.4375 0 L 1.125 0 L 1.125 -10.0625 L 2.546875 -10.0625 L 6.265625 -1.75 L 10 -10.0625 Z M 11.40625 -10.0625 "/></g></g></g><g fill="#545454" fill-opacity="1"><g transform="translate(215.838795, 272.278589)"><g><path d="M 8.1875 -7.96875 L 8.1875 0 L 6.859375 0 L 6.859375 -1.171875 C 6.609375 -0.765625 6.257812 -0.445312 5.8125 -0.21875 C 5.363281 0 4.867188 0.109375 4.328125 0.109375 C 3.703125 0.109375 3.140625 -0.015625 2.640625 -0.265625 C 2.148438 -0.523438 1.757812 -0.910156 1.46875 -1.421875 C 1.1875 -1.941406 1.046875 -2.566406 1.046875 -3.296875 L 1.046875 -7.96875 L 2.359375 -7.96875 L 2.359375 -3.484375 C 2.359375 -2.691406 2.554688 -2.082031 2.953125 -1.65625 C 3.347656 -1.238281 3.890625 -1.03125 4.578125 -1.03125 C 5.285156 -1.03125 5.84375 -1.25 6.25 -1.6875 C 6.65625 -2.125 6.859375 -2.757812 6.859375 -3.59375 L 6.859375 -7.96875 Z M 8.1875 -7.96875 "/></g></g></g><g fill="#545454" fill-opacity="1"><g transform="translate(226.716897, 272.278589)"><g><path d="M 0.625 -4.015625 C 0.625 -4.828125 0.785156 -5.539062 1.109375 -6.15625 C 1.441406 -6.769531 1.894531 -7.25 2.46875 -7.59375 C 3.050781 -7.9375 3.695312 -8.109375 4.40625 -8.109375 C 5.101562 -8.109375 5.707031 -7.957031 6.21875 -7.65625 C 6.738281 -7.351562 7.125 -6.972656 7.375 -6.515625 L 7.375 -7.96875 L 8.71875 -7.96875 L 8.71875 0 L 7.375 0 L 7.375 -1.484375 C 7.113281 -1.015625 6.722656 -0.628906 6.203125 -0.328125 C 5.679688 -0.0234375 5.078125 0.125 4.390625 0.125 C 3.679688 0.125 3.039062 -0.046875 2.46875 -0.390625 C 1.894531 -0.742188 1.441406 -1.234375 1.109375 -1.859375 C 0.785156 -2.492188 0.625 -3.210938 0.625 -4.015625 Z M 7.375 -4 C 7.375 -4.601562 7.25 -5.125 7 -5.5625 C 6.757812 -6.007812 6.429688 -6.351562 6.015625 -6.59375 C 5.609375 -6.832031 5.160156 -6.953125 4.671875 -6.953125 C 4.171875 -6.953125 3.71875 -6.832031 3.3125 -6.59375 C 2.90625 -6.363281 2.582031 -6.023438 2.34375 -5.578125 C 2.101562 -5.140625 1.984375 -4.617188 1.984375 -4.015625 C 1.984375 -3.398438 2.101562 -2.867188 2.34375 -2.421875 C 2.582031 -1.972656 2.90625 -1.628906 3.3125 -1.390625 C 3.71875 -1.148438 4.171875 -1.03125 4.671875 -1.03125 C 5.160156 -1.03125 5.609375 -1.148438 6.015625 -1.390625 C 6.429688 -1.628906 6.757812 -1.972656 7 -2.421875 C 7.25 -2.867188 7.375 -3.394531 7.375 -4 Z M 7.375 -4 "/></g></g></g><g fill="#545454" fill-opacity="1"><g transform="translate(238.118505, 272.278589)"><g/></g></g><g fill="#545454" fill-opacity="1"><g transform="translate(243.572534, 272.278589)"><g><path d="M 7.359375 -10.140625 L 7.359375 -9.0625 L 4.59375 -9.0625 L 4.59375 0 L 3.265625 0 L 3.265625 -9.0625 L 0.5 -9.0625 L 0.5 -10.140625 Z M 7.359375 -10.140625 "/></g></g></g><g fill="#545454" fill-opacity="1"><g transform="translate(253.011, 272.278589)"><g><path d="M 0.625 -4.015625 C 0.625 -4.828125 0.785156 -5.539062 1.109375 -6.15625 C 1.441406 -6.769531 1.894531 -7.25 2.46875 -7.59375 C 3.050781 -7.9375 3.695312 -8.109375 4.40625 -8.109375 C 5.101562 -8.109375 5.707031 -7.957031 6.21875 -7.65625 C 6.738281 -7.351562 7.125 -6.972656 7.375 -6.515625 L 7.375 -7.96875 L 8.71875 -7.96875 L 8.71875 0 L 7.375 0 L 7.375 -1.484375 C 7.113281 -1.015625 6.722656 -0.628906 6.203125 -0.328125 C 5.679688 -0.0234375 5.078125 0.125 4.390625 0.125 C 3.679688 0.125 3.039062 -0.046875 2.46875 -0.390625 C 1.894531 -0.742188 1.441406 -1.234375 1.109375 -1.859375 C 0.785156 -2.492188 0.625 -3.210938 0.625 -4.015625 Z M 7.375 -4 C 7.375 -4.601562 7.25 -5.125 7 -5.5625 C 6.757812 -6.007812 6.429688 -6.351562 6.015625 -6.59375 C 5.609375 -6.832031 5.160156 -6.953125 4.671875 -6.953125 C 4.171875 -6.953125 3.71875 -6.832031 3.3125 -6.59375 C 2.90625 -6.363281 2.582031 -6.023438 2.34375 -5.578125 C 2.101562 -5.140625 1.984375 -4.617188 1.984375 -4.015625 C 1.984375 -3.398438 2.101562 -2.867188 2.34375 -2.421875 C 2.582031 -1.972656 2.90625 -1.628906 3.3125 -1.390625 C 3.71875 -1.148438 4.171875 -1.03125 4.671875 -1.03125 C 5.160156 -1.03125 5.609375 -1.148438 6.015625 -1.390625 C 6.429688 -1.628906 6.757812 -1.972656 7 -2.421875 C 7.25 -2.867188 7.375 -3.394531 7.375 -4 Z M 7.375 -4 "/></g></g></g><g fill="#545454" fill-opacity="1"><g transform="translate(264.412608, 272.278589)"><g><path d="M 7.984375 -7.96875 L 3.1875 3.75 L 1.8125 3.75 L 3.390625 -0.09375 L 0.171875 -7.96875 L 1.640625 -7.96875 L 4.140625 -1.515625 L 6.625 -7.96875 Z M 7.984375 -7.96875 "/></g></g></g><g fill="#545454" fill-opacity="1"><g transform="translate(274.170998, 272.278589)"><g><path d="M 2.84375 -10.140625 L 2.671875 -2.859375 L 1.578125 -2.859375 L 1.40625 -10.140625 Z M 2.1875 0.09375 C 1.925781 0.09375 1.707031 0.00390625 1.53125 -0.171875 C 1.363281 -0.347656 1.28125 -0.5625 1.28125 -0.8125 C 1.28125 -1.0625 1.363281 -1.273438 1.53125 -1.453125 C 1.707031 -1.628906 1.925781 -1.71875 2.1875 -1.71875 C 2.425781 -1.71875 2.628906 -1.628906 2.796875 -1.453125 C 2.972656 -1.273438 3.0625 -1.0625 3.0625 -0.8125 C 3.0625 -0.5625 2.972656 -0.347656 2.796875 -0.171875 C 2.628906 0.00390625 2.425781 0.09375 2.1875 0.09375 Z M 2.1875 0.09375 "/></g></g></g></svg>